# xmcd
#
# Track frame offsets:
# 150
# 11014
# 13999
# 20839
# 39126
# 58318
# 82621
# 150871
# 170576
# 186309
# 195350
# 198946
# 211696
# 219392
#
# Disc length: 3108 seconds
#
# Revision: 0
# Processed by: cddbd v1.4PL0 Copyright (c) Steve Scherf et al.
# Submitted via: Audion 3.0.2 (http://www.panic.com/audion/)
#
DISCID=ac0c220e
DTITLE=E*rock - Field/Crystal Palace Plastic
DYEAR=1900
DGENRE=
TTITLE0=Field 1
TTITLE1=Field 2
TTITLE2=Field 3
TTITLE3=Field 4
TTITLE4=Field 5
TTITLE5=Field 6
TTITLE6=Field 7
TTITLE7=Field 8
TTITLE8=CPP 9
TTITLE9=CPP 10
TTITLE10=CPP 11
TTITLE11=CPP 12
TTITLE12=CPP 13
TTITLE13=CPP 14
EXTD=
EXTT0=
EXTT1=
EXTT2=
EXTT3=
EXTT4=
EXTT5=
EXTT6=
EXTT7=
EXTT8=
EXTT9=
EXTT10=
EXTT11=
EXTT12=
EXTT13=
PLAYORDER=
